<?xml version="1.0" encoding="utf-8"?><svg xmlns="http://www.w3.org/2000/svg"><defs><symbol id="arrow-right" viewBox="0 -960 960 960"><path d="M686-450H160v-60h526L438-758l42-42 320 320-320 320-42-42 248-248Z"/></symbol><symbol id="asterisk" viewBox="0 -960 960 960"><path d="M450-120v-288L247-205l-42-42 203-203H120v-60h289L205-714l42-42 203 203v-287h60v288l204-204 42 42-204 204h288v60H553l203 203-42 42-204-204v289h-60Z"/></symbol><symbol id="chevron-down" viewBox="0 -960 960 960"><path d="M480-344 240-584l43-43 197 197 197-197 43 43-240 240Z"/></symbol><symbol id="check" viewBox="0 -960 960 960"><path d="M378-246 154-470l43-43 181 181 384-384 43 43-427 427Z"/></symbol><symbol id="chevron-left" viewBox="0 -960 960 960"><path d="M561-240 320-481l241-241 43 43-198 198 198 198-43 43Z"/></symbol><symbol id="chevron-right" viewBox="0 -960 960 960"><path d="M530-481 332-679l43-43 241 241-241 241-43-43 198-198Z"/></symbol><symbol id="plus" viewBox="0 -960 960 960"><path d="M450-450H200v-60h250v-250h60v250h250v60H510v250h-60v-250Z"/></symbol><symbol id="chevrons-up-down" viewBox="0 -960 960 960"><path d="M480-120 300-300l44-44 136 136 136-136 44 44-180 180ZM344-612l-44-44 180-180 180 180-44 44-136-136-136 136Z"/></symbol><symbol id="minus" viewBox="0 -960 960 960"><path d="M200-450v-60h560v60H200Z"/></symbol><symbol id="chevron-up" viewBox="0 -960 960 960"><path d="M480-554 283-357l-43-43 240-240 240 240-43 43-197-197Z"/></symbol><symbol id="circle-alert" viewBox="0 -960 960 960"><path d="M479.98-280q14.02 0 23.52-9.48t9.5-23.5q0-14.02-9.48-23.52t-23.5-9.5q-14.02 0-23.52 9.48t-9.5 23.5q0 14.02 9.48 23.52t23.5 9.5ZM453-433h60v-253h-60v253Zm27.27 353q-82.74 0-155.5-31.5Q252-143 197.5-197.5t-86-127.34Q80-397.68 80-480.5t31.5-155.66Q143-709 197.5-763t127.34-85.5Q397.68-880 480.5-880t155.66 31.5Q709-817 763-763t85.5 127Q880-563 880-480.27q0 82.74-31.5 155.5Q817-252 763-197.68q-54 54.31-127 86Q563-80 480.27-80Zm.23-60Q622-140 721-239.5t99-241Q820-622 721.19-721T480-820q-141 0-240.5 98.81T140-480q0 141 99.5 240.5t241 99.5Zm-.5-340Z"/></symbol><symbol id="times" viewBox="0 -960 960 960"><path d="m249-207-42-42 231-231-231-231 42-42 231 231 231-231 42 42-231 231 231 231-42 42-231-231-231 231Z"/></symbol><symbol id="search" viewBox="0 -960 960 960"><path d="M796-121 533-384q-30 26-69.96 40.5Q423.08-329 378-329q-108.16 0-183.08-75Q120-479 120-585t75-181q75-75 181.5-75t181 75Q632-691 632-584.85 632-542 618-502q-14 40-42 75l264 262-44 44ZM377-389q81.25 0 138.13-57.5Q572-504 572-585t-56.87-138.5Q458.25-781 377-781q-82.08 0-139.54 57.5Q180-666 180-585t57.46 138.5Q294.92-389 377-389Z"/></symbol></defs></svg>