<?xml version="1.0" encoding="utf-8"?><svg xmlns="http://www.w3.org/2000/svg"><defs><symbol id="asterisk"><path d="M12.75 8a.75.75 0 0 0-1.5 0v2.701l-2.34-1.35a.75.75 0 0 0-.75 1.298L10.5 12l-2.34 1.35a.75.75 0 1 0 .75 1.3l2.34-1.35V16a.75.75 0 0 0 1.5 0v-2.701l2.34 1.35a.75.75 0 0 0 .75-1.298L13.5 12l2.34-1.35a.75.75 0 0 0-.75-1.3l-2.34 1.351V8Z"/></symbol><symbol id="chevron-left"><path d="M15.28 5.22a.75.75 0 0 1 0 1.06L9.56 12l5.72 5.72a.749.749 0 0 1-.326 1.275.749.749 0 0 1-.734-.215l-6.25-6.25a.75.75 0 0 1 0-1.06l6.25-6.25a.75.75 0 0 1 1.06 0Z"/></symbol><symbol id="chevron-down"><path d="M5.22 8.22a.749.749 0 0 0 0 1.06l6.25 6.25a.749.749 0 0 0 1.06 0l6.25-6.25a.749.749 0 1 0-1.06-1.06L12 13.939 6.28 8.22a.749.749 0 0 0-1.06 0Z"/></symbol><symbol id="check"><path d="M21.03 5.72a.75.75 0 0 1 0 1.06l-11.5 11.5a.747.747 0 0 1-1.072-.012l-5.5-5.75a.75.75 0 1 1 1.084-1.036l4.97 5.195L19.97 5.72a.75.75 0 0 1 1.06 0Z"/></symbol><symbol id="chevron-up"><path d="M18.78 15.78a.749.749 0 0 1-1.06 0L12 10.061 6.28 15.78a.749.749 0 1 1-1.06-1.06l6.25-6.25a.749.749 0 0 1 1.06 0l6.25 6.25a.749.749 0 0 1 0 1.06Z"/></symbol><symbol id="minus"><path d="M4.5 12.75a.75.75 0 0 1 .75-.75h13.5a.75.75 0 0 1 0 1.5H5.25a.75.75 0 0 1-.75-.75Z"/></symbol><symbol id="chevron-right"><path d="M8.72 18.78a.75.75 0 0 1 0-1.06L14.44 12 8.72 6.28a.751.751 0 0 1 .018-1.042.751.751 0 0 1 1.042-.018l6.25 6.25a.75.75 0 0 1 0 1.06l-6.25 6.25a.75.75 0 0 1-1.06 0Z"/></symbol><symbol id="arrow-right-16"><path d="M8.22 2.97a.75.75 0 0 1 1.06 0l4.25 4.25a.75.75 0 0 1 0 1.06l-4.25 4.25a.751.751 0 0 1-1.042-.018.751.751 0 0 1-.018-1.042l2.97-2.97H3.75a.75.75 0 0 1 0-1.5h7.44L8.22 4.03a.75.75 0 0 1 0-1.06Z"/></symbol><symbol id="plus"><path d="M11.75 4.5a.75.75 0 0 1 .75.75V11h5.75a.75.75 0 0 1 0 1.5H12.5v5.75a.75.75 0 0 1-1.5 0V12.5H5.25a.75.75 0 0 1 0-1.5H11V5.25a.75.75 0 0 1 .75-.75Z"/></symbol><symbol id="chevrons-up-down"><path d="M16.78 14.47a.749.749 0 0 1 0 1.06l-4.25 4.25a.749.749 0 0 1-1.06 0L7.22 15.53a.749.749 0 1 1 1.06-1.06L12 18.189l3.72-3.719a.749.749 0 0 1 1.06 0Z"/><path d="M7.22 9.53a.749.749 0 0 1 0-1.06l4.25-4.25a.749.749 0 0 1 1.06 0l4.25 4.25a.749.749 0 1 1-1.06 1.06L12 5.811 8.28 9.53a.749.749 0 0 1-1.06 0Z"/></symbol><symbol id="circle-alert"><path d="M12 7a.75.75 0 0 1 .75.75v4.5a.75.75 0 0 1-1.5 0v-4.5A.75.75 0 0 1 12 7Zm0 10a1 1 0 1 0 0-2 1 1 0 0 0 0 2Z"/><path d="M7.328 1.47a.749.749 0 0 1 .53-.22h8.284c.199 0 .389.079.53.22l5.858 5.858c.141.14.22.33.22.53v8.284a.749.749 0 0 1-.22.53l-5.858 5.858a.749.749 0 0 1-.53.22H7.858a.749.749 0 0 1-.53-.22L1.47 16.672a.749.749 0 0 1-.22-.53V7.858c0-.199.079-.389.22-.53Zm.84 1.28L2.75 8.169v7.662l5.419 5.419h7.662l5.419-5.418V8.168L15.832 2.75Z"/></symbol><symbol id="times"><path d="M5.72 5.72a.75.75 0 0 1 1.06 0L12 10.94l5.22-5.22a.749.749 0 0 1 1.275.326.749.749 0 0 1-.215.734L13.06 12l5.22 5.22a.749.749 0 0 1-.326 1.275.749.749 0 0 1-.734-.215L12 13.06l-5.22 5.22a.751.751 0 0 1-1.042-.018.751.751 0 0 1-.018-1.042L10.94 12 5.72 6.78a.75.75 0 0 1 0-1.06Z"/></symbol><symbol id="search"><path d="M10.25 2a8.25 8.25 0 0 1 6.34 13.53l5.69 5.69a.749.749 0 0 1-.326 1.275.749.749 0 0 1-.734-.215l-5.69-5.69A8.25 8.25 0 1 1 10.25 2ZM3.5 10.25a6.75 6.75 0 1 0 13.5 0 6.75 6.75 0 0 0-13.5 0Z"/></symbol></defs></svg>