<?xml version="1.0" encoding="utf-8"?><svg xmlns="http://www.w3.org/2000/svg"><defs><symbol id="asterisk"><path d="M12 6v12"/><path d="M17.196 9 6.804 15"/><path d="m6.804 9 10.392 6"/></symbol><symbol id="arrow-right"><path d="M5 12h14"/><path d="m12 5 7 7-7 7"/></symbol><symbol id="check"><path d="M20 6 9 17l-5-5"/></symbol><symbol id="chevron-down"><path d="m6 9 6 6 6-6"/></symbol><symbol id="chevron-left"><path d="m15 18-6-6 6-6"/></symbol><symbol id="chevrons-up-down"><path d="m7 15 5 5 5-5"/><path d="m7 9 5-5 5 5"/></symbol><symbol id="chevron-up"><path d="m18 15-6-6-6 6"/></symbol><symbol id="circle-alert"><circle cx="12" cy="12" r="10"/><line x1="12" x2="12" y1="8" y2="12"/><line x1="12" x2="12.01" y1="16" y2="16"/></symbol><symbol id="minus"><path d="M5 12h14"/></symbol><symbol id="chevron-right"><path d="m9 18 6-6-6-6"/></symbol><symbol id="search"><path d="m21 21-4.34-4.34"/><circle cx="11" cy="11" r="8"/></symbol><symbol id="plus"><path d="M5 12h14"/><path d="M12 5v14"/></symbol><symbol id="times"><path d="M18 6 6 18"/><path d="m6 6 12 12"/></symbol></defs></svg>