<?xml version="1.0" encoding="utf-8"?><svg xmlns="http://www.w3.org/2000/svg"><defs><symbol id="asterisk"><path stroke="none" d="M0 0h24v24H0z" fill="none"/><path d="M12 12l8 -4.5"/><path d="M12 12v9"/><path d="M12 12l-8 -4.5"/><path d="M12 12l8 4.5"/><path d="M12 3v9"/><path d="M12 12l-8 4.5"/></symbol><symbol id="chevron-down"><path stroke="none" d="M0 0h24v24H0z" fill="none"/><path d="M6 9l6 6l6 -6"/></symbol><symbol id="chevron-left"><path stroke="none" d="M0 0h24v24H0z" fill="none"/><path d="M15 6l-6 6l6 6"/></symbol><symbol id="arrow-right"><path stroke="none" d="M0 0h24v24H0z" fill="none"/><path d="M5 12l14 0"/><path d="M13 18l6 -6"/><path d="M13 6l6 6"/></symbol><symbol id="chevron-right"><path stroke="none" d="M0 0h24v24H0z" fill="none"/><path d="M9 6l6 6l-6 6"/></symbol><symbol id="check"><path stroke="none" d="M0 0h24v24H0z" fill="none"/><path d="M5 12l5 5l10 -10"/></symbol><symbol id="chevron-up"><path stroke="none" d="M0 0h24v24H0z" fill="none"/><path d="M6 15l6 -6l6 6"/></symbol><symbol id="chevrons-up-down"><path stroke="none" d="M0 0h24v24H0z" fill="none"/><path d="M8 9l4 -4l4 4"/><path d="M16 15l-4 4l-4 -4"/></symbol><symbol id="search"><path stroke="none" d="M0 0h24v24H0z" fill="none"/><path d="M10 10m-7 0a7 7 0 1 0 14 0a7 7 0 1 0 -14 0"/><path d="M21 21l-6 -6"/></symbol><symbol id="plus"><path stroke="none" d="M0 0h24v24H0z" fill="none"/><path d="M12 5l0 14"/><path d="M5 12l14 0"/></symbol><symbol id="minus"><path stroke="none" d="M0 0h24v24H0z" fill="none"/><path d="M5 12l14 0"/></symbol><symbol id="times"><path stroke="none" d="M0 0h24v24H0z" fill="none"/><path d="M18 6l-12 12"/><path d="M6 6l12 12"/></symbol><symbol id="circle-alert"><path stroke="none" d="M0 0h24v24H0z" fill="none"/><path d="M3 12a9 9 0 1 0 18 0a9 9 0 0 0 -18 0"/><path d="M12 8v4"/><path d="M12 16h.01"/></symbol></defs></svg>